<?xml version="1.0" encoding="UTF-8"?>
<svg width="43px" height="44px" viewBox="0 0 43 44" version="1.1" xmlns="http://www.w3.org/2000/svg" xmlns:xlink="http://www.w3.org/1999/xlink">
    <title>85400813-0470-4C00-8A2C-785BD91CA0E1</title>
    <defs>
        <filter x="-9.0%" y="-19.7%" width="118.0%" height="139.3%" filterUnits="objectBoundingBox" id="filter-1">
            <feOffset dx="0" dy="-4" in="SourceAlpha" result="shadowOffsetOuter1"></feOffset>
            <feGaussianBlur stdDeviation="4" in="shadowOffsetOuter1" result="shadowBlurOuter1"></feGaussianBlur>
            <feColorMatrix values="0 0 0 0 0   0 0 0 0 0   0 0 0 0 0  0 0 0 0.3 0" type="matrix" in="shadowBlurOuter1" result="shadowMatrixOuter1"></feColorMatrix>
            <feMerge>
                <feMergeNode in="shadowMatrixOuter1"></feMergeNode>
                <feMergeNode in="SourceGraphic"></feMergeNode>
            </feMerge>
        </filter>
    </defs>
    <g id="Page-1" stroke="none" stroke-width="1" fill="none" fill-rule="evenodd">
        <g id="UI-Style" transform="translate(-180.000000, -4442.000000)" fill="#B79B53" fill-rule="nonzero">
            <g id="btn/sidebar/gotoDAWHO" filter="url(#filter-1)" transform="translate(143.000000, 4405.500000)">
                <g id="img_gotoDAWHO" transform="translate(37.500000, 37.324201)">
                    <path d="M11.9465155,41.0643548 C11.953684,41.042319 11.9633029,41.0211573 11.9751917,41.0012671 C11.9633029,41.0211573 11.953684,41.042319 11.9465155,41.0643548 L11.9465155,41.0643548 Z" id="Path"></path>
                    <polygon id="Path" points="13.0190063 41.4543515 13.0190063 41.4543515 13.0190063 41.4486162"></polygon>
                    <path d="M4.10070023,35.873958 C4.1981994,35.9141047 4.27275759,36.0288096 4.37025675,36.0804268 C4.27275759,36.0288096 4.1981994,35.9141047 4.10070023,35.873958 Z" id="Path"></path>
                    <polygon id="Path" points="13.993998 41.7411137 13.993998 41.7411137 13.9882628 41.7411137"></polygon>
                    <path d="M41.9131711,17.7792598 L41.9131711,17.6817606 C41.9131711,17.5613204 41.9762588,17.435145 42.004935,17.3147049 C42.004935,17.0566189 41.9418473,16.8042681 41.9131711,16.5519173 C41.9131711,16.4601534 41.9131711,16.3626542 41.9131711,16.2708903 L41.8386129,16.2708903 C41.8386129,16.1848616 41.8386129,16.0988329 41.8386129,16.0128043 L41.8386129,15.7317773 L41.7525842,15.7317773 C41.7525842,15.5826609 41.700967,15.4335445 41.678026,15.2786929 C41.632144,14.9632544 41.5919973,14.6420807 41.5518506,14.320907 C41.5459241,14.2944706 41.5459241,14.2670499 41.5518506,14.2406135 L41.4600867,14.1316439 C41.4600867,14.0742914 41.4600867,14.0112037 41.4600867,13.948116 C41.4600867,13.8850283 41.3912638,13.6957653 41.3625875,13.5695899 L40.8636212,12.5372457 L40.7202401,12.3709236 L40.7202401,12.2734245 C40.7142138,12.2431333 40.7142138,12.2119517 40.7202401,12.1816606 L40.6399466,12.1816606 L40.508036,11.9235745 L40.4048016,11.7343114 L40.3245082,11.5335779 C40.0778926,11.1550517 39.8198066,10.787996 39.596132,10.3865288 C39.4952286,10.1922838 39.3448796,10.0280868 39.1602534,9.9105035 C39.0818444,9.72416252 38.9796751,9.54873968 38.8562854,9.3885962 C38.472024,8.97565855 38.236879,8.46522174 37.8755585,8.0408136 L36.8374792,7.16332111 L36.8374792,7.16332111 C36.6998333,6.95111704 36.5564522,6.73891297 36.413071,6.53244415 L36.3270423,6.53244415 C36.3245914,6.50190527 36.3245914,6.4712191 36.3270423,6.44068023 C36.1205735,6.30303434 35.9943981,6.05068356 35.6961654,6.05641881 C35.6445482,6.05641881 35.5871957,5.99333111 35.5413138,5.94744915 C35.2488163,5.64348116 34.9677893,5.33377793 34.6695565,5.02407469 L34.4802934,4.82334111 C34.4860094,4.79494973 34.4860094,4.76570382 34.4802934,4.73731244 L33.837946,4.51937312 L33.7289763,4.43334445 C33.7318279,4.40282293 33.7318279,4.37210204 33.7289763,4.34158053 L33.6257419,4.25555185 L33.5225075,4.16378793 C33.4873011,4.13620962 33.4546678,4.10549591 33.4250083,4.07202401 L33.2357452,3.97452484 L33.1325108,3.88276092 L32.4672224,3.88276092 C32.1982784,3.82699813 31.9616723,3.66857492 31.8076692,3.44114705 C31.8076692,3.40673558 31.7273758,3.39526509 31.6872291,3.36658886 L31.5782594,3.29203068 L31.5782594,3.29203068 L31.5782594,3.206002 L31.4692898,3.13144381 L30.9989997,3.01673891 C30.8289397,2.87615416 30.6172922,2.79552653 30.3967989,2.78732911 C30.3178591,2.78939452 30.2394623,2.77371516 30.1673891,2.74144715 C29.6454818,2.52350784 29.157986,2.24248083 28.618873,2.07615872 C28.618873,2.07615872 28.572991,2.03027676 28.55005,2.00733578 C28.3535061,1.92503976 28.1619975,1.83120052 27.9765255,1.72630877 C27.8863991,1.64033849 27.8091348,1.54182647 27.7471157,1.43381127 C27.4272664,1.38403799 27.125316,1.25378489 26.8696232,1.0552851 L26.5025675,0.940580193 C26.2480838,0.97665495 25.9909021,0.990089815 25.7340447,0.980726909 C25.4121733,1.00896 25.0879488,0.969896805 24.781994,0.866022007 C24.3793315,0.674916174 23.9531282,0.537991128 23.5145048,0.458819607 L23.5145048,0.38426142 L23.330977,0.38426142 L23.330977,0.38426142 C22.8851989,0.22955287 22.4002963,0.22955287 21.9545182,0.38426142 C21.9329494,0.373039936 21.907264,0.373039936 21.8856952,0.38426142 L21.3465822,0.269556519 L21.0655552,0.189263088 L20.8590864,0.0917639213 L20.4690897,0.0917639213 C20.4690897,0.0917639213 20.4690897,0.120440147 20.4690897,0.137645882 C20.4504046,0.143395834 20.4304224,0.143395834 20.4117372,0.137645882 L19.9873291,0.137645882 L19.0983661,0 L17.8423474,0 L17.2688229,0.0917639213 C17.2663314,0.116554206 17.2663314,0.141531823 17.2688229,0.166322107 L17.0910303,0.194998333 L16.9017673,0.194998333 C16.8793146,0.201692421 16.855397,0.201692421 16.8329443,0.194998333 L16.6895632,0.298232744 L16.5748583,0.298232744 L16.2766255,0.298232744 L16.1848616,0.378526175 L16.1848616,0.378526175 C16.1848616,0.441613871 16.1848616,0.504701567 16.1848616,0.567789263 L16.0816272,0.751317106 C16.1788578,0.816518156 16.2228885,0.937023356 16.1905969,1.04954985 L16.1905969,1.04954985 L15.9898633,1.04954985 C15.9898633,1.07822608 15.9898633,1.10116706 15.9898633,1.12984328 L15.794865,1.14704902 L15.794865,1.14704902 L15.3819273,1.24454818 L15.3819273,1.24454818 L14.8084028,1.43954652 C14.7510504,1.84101367 14.4241414,1.90983661 14.1029677,1.9843948 C14.0954165,1.99210166 14.085081,1.99644467 14.0742914,1.99644467 C14.0635018,1.99644467 14.0531664,1.99210166 14.0456152,1.9843948 C14.0298785,2.01191227 14.0164503,2.04068705 14.0054685,2.07042347 L13.5237079,2.17365789 L13.2598866,2.29409803 L12.9788596,2.40306769 L12.7838613,2.50056686 L12.6806269,2.58086029 L12.3995999,2.68982994 L12.2046015,2.78732911 L11.9178393,2.88482828 L11.7973991,2.95365122 C11.738277,2.99332718 11.6770077,3.02970585 11.6138713,3.06262087 L11.4704902,3.17732578 L11.1894632,3.17732578 L10.9829943,3.34364788 L10.7994665,3.34364788 L10.7994665,3.41820607 C10.5241747,3.41820607 10.3578526,3.6132044 10.1513838,3.73364455 L10.0366789,3.80820273 L9.85315105,3.92290764 L9.73844615,3.99746582 C9.73568364,4.02415902 9.73568364,4.05106606 9.73844615,4.07775925 L9.57785929,4.11217072 L9.46888963,4.19246415 L9.29109703,4.30716906 L9.17639213,4.43334445 L8.99286429,4.54804935 L8.80933645,4.65128376 L8.6888963,4.7201067 L8.40786929,5.0126042 L8.29889963,5.09863288 L8.18992998,5.09863288 L7.90890297,5.37965989 L7.81713905,5.45995332 L7.81713905,5.45995332 C7.78683366,5.45407321 7.75568051,5.45407321 7.72537513,5.45995332 L7.63934645,5.56318773 C7.63934645,5.61480493 7.63934645,5.67215739 7.61067022,5.72950984 L7.53037679,5.72950984 L7.3411137,5.92450817 L7.24934978,6.02200734 L7.15185062,6.1195065 L7.04288096,6.20553518 L6.95685228,6.30303434 L6.85935312,6.40053351 L6.67009003,6.59553184 C6.62994331,6.64714905 6.5897966,6.7045015 6.54391464,6.75611871 L6.44641547,6.85361787 L6.35465155,6.95111704 L6.25715238,7.04861621 C6.22957407,7.08382258 6.19886036,7.1164559 6.16538846,7.14611537 C6.0678893,7.27229076 5.97039013,7.39846616 5.86715572,7.5189063 L5.78686229,7.62214071 C5.77454015,7.67320774 5.76496765,7.72489928 5.75818606,7.77699233 L5.66642214,7.77699233 C5.64159643,7.81654845 5.61479814,7.85483172 5.58612871,7.89169723 L5.47715905,8.02934311 L5.38539513,8.12684228 L5.28789597,8.22434145 C5.25268959,8.25191976 5.22005627,8.28263347 5.1903968,8.31610537 L5.0756919,8.48816272 L4.960987,8.66022007 L4.70863621,8.79213071 L4.58819607,8.98712904 L4.50216739,9.17639213 C4.49693266,9.37594058 4.38831823,9.55841282 4.21540514,9.65815272 L4.01467156,9.93344448 L3.89423141,10.1055018 L3.81967322,10.2202067 L3.68202734,10.552851 L3.22320774,11.1550517 L3.03394465,11.7285762 C3.00428518,11.7620481 2.97165186,11.7927618 2.93644548,11.8203401 C2.93644548,11.935045 2.93644548,12.0497499 2.93644548,12.1644548 C2.83831776,12.281902 2.74642723,12.4044227 2.66115372,12.5315105 C2.55791931,12.6978326 2.47189063,12.8813605 2.37439146,13.0534178 C2.38014142,13.0347327 2.38014142,13.0147505 2.37439146,12.9960654 L2.27115705,13.127976 L2.18512838,13.3172391 C2.15071691,13.4147382 2.11630544,13.5065022 2.08762921,13.6040013 C2.05895298,13.7015005 2.08762921,13.667089 2.08762921,13.6957653 C2.08762921,13.7244415 2.02454151,13.8850283 1.99013004,13.9767923 C1.99289753,14.0092331 1.99289753,14.0418506 1.99013004,14.0742914 L1.89263088,14.1717906 C1.89263088,14.2004668 1.89263088,14.2348783 1.89263088,14.2635545 L1.75498499,14.3381127 L1.75498499,14.3381127 C1.75498499,14.4241414 1.84674892,14.5503168 1.81233745,14.5961987 C1.58292764,14.905902 1.74924975,15.1697232 1.81233745,15.490897 C1.8147859,15.5195209 1.8147859,15.5483017 1.81233745,15.5769256 C1.82366642,15.6004873 1.82366642,15.6279222 1.81233745,15.6514838 C1.55425142,15.7145715 1.49116372,15.4736912 1.3363121,15.3647216 C1.34838846,14.9392651 1.44386951,14.5203177 1.61733911,14.1316439 C1.6142576,14.1049681 1.6142576,14.0780262 1.61733911,14.0513505 L1.47395799,14.0513505 C1.47395799,14.2807603 1.47395799,14.5159053 1.18146049,14.624875 C1.11837279,14.624875 1.11263755,14.8084028 1.07822608,14.905902 C1.18067636,15.0833511 1.18067636,15.3019774 1.07822608,15.4794265 C1.08383426,15.5097574 1.08383426,15.5408595 1.07822608,15.5711904 L0.992197399,15.7661887 C0.994997194,15.7947966 0.994997194,15.8236095 0.992197399,15.8522174 L0.992197399,16.2192731 L0.906168723,16.2192731 C0.906168723,16.3454485 0.906168723,16.4716239 0.906168723,16.5977993 L0.808669557,16.6895632 L0.808669557,16.6895632 L0.808669557,16.9705902 L0.808669557,16.9705902 L0.808669557,17.245882 C0.886596142,17.3278103 0.886596142,17.4564511 0.808669557,17.5383795 C0.806004686,17.5689094 0.806004686,17.5996134 0.808669557,17.6301434 C0.808669557,17.784995 0.762787596,17.8423474 0.619406469,17.7333778 C0.619406469,17.8251417 0.619406469,17.9169056 0.619406469,18.0086696 C0.622258044,18.0391911 0.622258044,18.069912 0.619406469,18.1004335 C0.648082694,18.1635212 0.67675892,18.2208736 0.6996999,18.2839613 L0.573524508,18.3527843 C0.573524508,18.4502834 0.573524508,18.5420473 0.573524508,18.6395465 L0.487495832,18.8230744 L0.487495832,18.8230744 L0.38426142,18.9205735 L0.38426142,18.9205735 L0.38426142,19.0352784 L0.38426142,19.3851284 C0.418198553,19.4810025 0.446916858,19.5786447 0.470290097,19.6776259 C0.504701567,19.8267422 0.521907302,19.9815939 0.544848283,20.1307102 C0.516172057,20.1651217 0.487495832,20.2052684 0.453084361,20.2396799 L0.275291764,20.147916 L0.275291764,20.147916 L0.172057352,19.866889 L0.172057352,19.866889 C0.137645882,20.0217406 0.103234411,20.1765922 0.0745581861,20.3314438 C0.0745581861,20.36012 0.0745581861,20.3887963 0.0745581861,20.4232077 C0.152327337,20.639019 0.124744534,20.8787772 0,21.0712904 C0.00283681419,21.0998965 0.00283681419,21.128713 0,21.1573191 C0.143381127,21.294965 0.258086029,21.4326109 0.103234411,21.6276092 C0.103234411,21.7881961 0.0401467156,21.9487829 0.00573524508,22.1093698 L0.00573524508,22.2756919 L0.108969657,22.2756919 C0.160586862,22.4534845 0.206468823,22.6312771 0.252350784,22.8033344 C0.298232744,22.9753918 0.33837946,23.0958319 0.38426142,23.2392131 C0.430143381,23.3825942 0.38426142,23.5087696 0.32690897,23.589063 C0.172057352,23.7897966 0.292497499,23.9274425 0.389996666,24.0822941 C0.389996666,24.2371457 0.389996666,24.3919973 0.389996666,24.5525842 C0.393183366,24.5792538 0.393183366,24.606208 0.389996666,24.6328776 L0.493231077,24.6328776 L0.493231077,24.8221407 L0.573524508,24.8221407 C0.573524508,24.8565522 0.573524508,24.8909637 0.573524508,24.9253751 L0.573524508,25.0114038 C0.602200734,25.0744915 0.636612204,25.1375792 0.671023675,25.2006669 L0.768522841,25.2006669 C0.771374416,25.2311884 0.771374416,25.2619093 0.768522841,25.2924308 L0.682494165,25.2924308 L0.682494165,25.3841947 L0.573524508,25.4988996 L0.573524508,25.4988996 C0.539113038,25.5963988 0.510436812,25.6881627 0.476025342,25.7799266 L0.476025342,25.8774258 L0.671023675,26.0666889 L0.671023675,26.0666889 L0.774258086,26.3534512 L0.871757252,26.3534512 L0.963521174,26.4509503 C0.963521174,26.514038 0.963521174,26.5713905 0.963521174,26.6344782 L1.0552851,26.7319773 C1.05213856,26.7644009 1.05213856,26.7970529 1.0552851,26.8294765 L1.0552851,27.0015338 L1.13557853,27.1105035 C1.13274171,27.1391096 1.13274171,27.1679261 1.13557853,27.1965322 L1.00366789,27.1965322 C0.942078202,27.0562248 0.871185727,26.9201879 0.791463821,26.7893298 C0.791463821,26.7491831 0.665288429,26.7491831 0.596465488,26.7377126 L0.573524508,26.7377126 C0.607935979,26.8294765 0.636612204,26.9269757 0.671023675,27.0244748 L0.671023675,27.0244748 L0.757052351,27.2080027 L0.757052351,27.2940313 C0.785728576,27.3284428 0.820140047,27.3628543 0.848816272,27.403001 C0.877492497,27.4431477 0.785728576,27.6496165 0.757052351,27.7757919 L0.848816272,27.8732911 L1.14704902,27.8732911 L1.14704902,28.0625542 L1.23881294,28.1600534 L1.23881294,28.1600534 C1.23881294,28.314905 1.23881294,28.4754918 1.23881294,28.6303434 L1.53131044,29.2898966 L1.62307436,29.3873958 L1.62307436,29.3873958 L1.62307436,29.4791597 L1.72057352,29.5766589 L1.72057352,29.5766589 C1.72057352,29.6913638 1.72057352,29.8232744 1.66322107,29.9379793 L1.76072024,29.9379793 L1.85248416,29.7544515 L1.94424808,29.7544515 C2.04748249,29.9093031 2.14498166,30.0641547 2.24248083,30.2190063 C2.44594108,30.279325 2.57500826,30.4790138 2.54644882,30.6892964 L2.4432144,30.9703234 C2.44018597,31.0008365 2.44018597,31.0315743 2.4432144,31.0620874 C2.4432144,31.1538513 2.4432144,31.2456152 2.4432144,31.3373791 L2.52924308,31.3373791 C2.56365455,31.4004668 2.59233078,31.4635545 2.62674225,31.520907 L2.43747916,31.520907 C2.47189063,31.5839947 2.5063021,31.6470824 2.53497833,31.7101701 C2.5693898,31.6470824 2.60380127,31.5839947 2.63247749,31.520907 L2.90776926,31.520907 C2.94791597,31.6413471 2.99379793,31.756052 3.03394465,31.8707569 C3.07409136,31.9854618 2.93071024,32.0256085 2.81600534,31.9682561 L2.63821274,31.8936979 C2.66688896,32.0198733 2.70130043,32.1403134 2.72997666,32.2664888 L2.82747583,32.363988 L3.11997332,32.6507503 C3.1551797,32.6783286 3.18781302,32.7090423 3.21747249,32.7425142 L3.21747249,32.7425142 L3.31497166,32.8342781 L3.31497166,32.8342781 L3.41247082,32.926042 L3.44114705,32.926042 L3.52717573,33.0120707 L3.64188063,33.1210403 L3.72217406,33.1210403 C3.74069751,33.1383183 3.75451418,33.1600302 3.76232077,33.184128 C3.82014724,33.2229454 3.87568064,33.2650742 3.92864288,33.3103034 C3.92864288,33.3103034 3.92864288,33.3676559 3.92864288,33.4020674 L4.0204068,33.4823608 L4.12364121,33.4823608 C4.12087373,33.5148016 4.12087373,33.5474191 4.12364121,33.57986 L4.20393464,33.57986 L4.51937312,33.9297099 C4.51937312,33.9641214 4.51937312,33.9985328 4.51937312,34.0329443 L4.51937312,34.1304435 C4.55378459,34.2852951 4.58246082,34.445882 4.61687229,34.6007336 L4.71437146,34.6007336 L4.91510504,34.6924975 L5.10436812,34.7899967 L5.16172057,34.7899967 L5.3681894,35.1627876 L5.47142381,35.4380794 L5.84994998,35.547049 L6.45215072,36.0001334 L6.55538513,36.0918973 C7.31758222,36.7230336 8.12454456,37.2980661 8.96992331,37.8124708 C8.96992331,37.8526175 8.96992331,37.9157052 9.02727576,37.9386462 L9.84741581,38.4777593 C9.92520176,38.6130073 10.0770449,38.6877957 10.2316772,38.6670223 L10.2316772,38.6670223 L10.5356452,38.8448149 L10.8224075,38.9480493 L10.9199066,39.0398133 L11.2066689,39.2405468 L11.114905,39.3265755 L11.4074025,39.5158386 C11.4991664,39.4183394 11.5966656,39.3265755 11.6941647,39.2290764 C11.6968296,39.2596063 11.6968296,39.2903103 11.6941647,39.3208403 L11.7859286,39.4183394 L11.7859286,39.4183394 C11.7859286,39.5158386 11.7859286,39.6076025 11.7859286,39.7051017 L12.0784261,39.7968656 L12.4684228,39.6076025 L12.4684228,39.6076025 L12.4684228,39.8886295 L12.565922,39.8886295 L12.565922,39.9861287 L12.7609203,40.0778926 L12.7609203,40.0778926 L13.150917,40.1753918 L13.3401801,40.1753918 L13.6326776,39.8943648 L13.8276759,39.8943648 L13.9309103,39.9803935 L13.712971,40.1295098 C13.6550017,40.1722477 13.5994739,40.2182018 13.5466489,40.2671557 L13.8334111,40.3589196 L13.8334111,40.3589196 L14.0341447,40.4564188 L14.1259086,40.4564188 L14.5101701,40.5481827 L14.5101701,40.5481827 C14.6338917,40.5833396 14.7155397,40.7010088 14.7051684,40.8292097 L14.7051684,40.8292097 L14.905902,40.7374458 L15.3819273,40.8292097 L15.4851617,40.8292097 C15.8635482,40.8710237 16.2279151,40.9963972 16.5519173,41.1962654 L17.0451484,41.1962654 L17.1426475,41.1962654 L17.2344115,41.1962654 L17.3204401,41.1962654 L17.3204401,41.2822941 L17.6072024,41.2822941 C17.6072024,41.2822941 17.6072024,41.2306769 17.6072024,41.2077359 L17.6932311,41.2822941 C17.7276425,41.3167056 17.762054,41.3453818 17.7907302,41.3797933 L18.673958,41.3797933 C18.673958,41.2192064 18.7370457,41.0643548 18.7657219,40.9037679 L18.7657219,40.9037679 L18.9607202,41.1905302 L18.9607202,41.3797933 L19.0582194,41.4715572 L19.0582194,41.4715572 C19.1675773,41.4171887 19.3003292,41.4605884 19.3564522,41.5690564 L20.2282094,41.5690564 C20.4117372,41.3797933 20.2912971,41.3052351 20.079093,41.2650884 C20.2678982,40.9999187 20.6097292,40.8922185 20.9164388,41.0012671 L20.9164388,41.0012671 L21.1114371,41.093031 L21.1114371,41.093031 C21.1067742,41.162683 21.071405,41.2266626 21.0149009,41.2676557 C20.9583969,41.3086489 20.8866,41.3224173 20.8189396,41.3052351 C20.6182061,41.3052351 20.5379126,41.3912638 20.5264421,41.5690564 L20.5264421,41.5690564 L20.7157052,41.5690564 L20.8189396,41.5690564 L21.2089363,41.5690564 L21.4326109,41.4772924 L21.317906,41.0184728 L22.2756919,41.0184728 L22.5739246,40.8292097 L22.6771591,40.6456819 L22.9581861,40.4449483 L23.1589196,40.4449483 C23.2048016,40.5195065 23.2793598,40.5825942 23.1589196,40.6800934 C23.1078557,40.753299 23.0655107,40.8322146 23.0327442,40.9152384 C23.3653885,40.9152384 23.5259753,40.6571524 23.6980327,40.4334778 L24.0937646,40.3417139 L24.2142047,40.4506836 L23.7955318,40.6628876 C23.8414138,40.7546516 23.8758253,40.834945 23.9102367,40.9152384 L24.0880293,40.9152384 L24.2887629,40.8234745 L24.3805268,40.8234745 C24.455085,40.7431811 24.5296432,40.6284762 24.6443481,40.7489163 C24.6443481,40.7489163 24.6099366,40.8636212 24.5869957,40.9267089 C24.5640547,40.9897966 24.5869957,40.9840614 24.5869957,41.0127376 L24.5869957,41.1102367 L24.5869957,41.1102367 C24.7145283,41.0992748 24.8338824,41.1741636 24.8794932,41.2937646 L24.9712571,41.2937646 L25.0744915,41.2020007 L25.2350784,41.1790597 L25.2350784,41.1790597 C25.2350784,41.1446482 25.2981661,41.115972 25.3325775,41.0815605 L25.3325775,41.0815605 L25.5275759,40.9840614 L25.5275759,40.9840614 C25.5908078,40.9481407 25.6558985,40.9155954 25.7225742,40.8865622 L25.7225742,40.8865622 L25.7225742,40.7947983 L25.7225742,40.7947983 L25.9175725,40.7145048 L26.0208069,40.7145048 L25.9175725,40.9955318 L25.9175725,41.0815605 L26.1068356,41.0815605 L26.3018339,40.9955318 L26.4222741,40.8922974 L26.3821274,40.8922974 L26.5713905,40.4162721 L26.6918306,40.3359787 C27.0332203,40.3033072 27.365674,40.2080427 27.6725575,40.0549517 L27.7643214,39.9517172 L27.7643214,39.9517172 L28.6762254,39.6706902 L28.7737246,39.5731911 L29.157986,39.4756919 C29.157986,39.4756919 29.157986,39.4126042 29.157986,39.383928 L29.2497499,39.383928 C29.2950614,39.3214487 29.367568,39.2844654 29.4447482,39.2844654 C29.5219285,39.2844654 29.5944351,39.3214487 29.6397466,39.383928 L29.7372457,39.2921641 L30.0297432,39.2004001 L30.0297432,39.2004001 L30.1272424,39.102901 L30.1272424,39.102901 L30.3222407,38.9136379 L30.3222407,38.9136379 C30.3222407,38.8505502 30.3222407,38.7874625 30.3222407,38.7243748 L29.9379793,38.7243748 L29.8404802,38.821874 L29.8404802,38.821874 L29.7487162,38.9136379 L29.7487162,38.9136379 L29.6454818,39.011137 L29.6454818,39.011137 L29.5479827,39.102901 L29.2554852,39.2004001 L29.0662221,39.2921641 C28.9285762,39.2921641 28.8253418,39.2577526 28.854018,39.0971657 C28.8594429,39.0687461 28.8594429,39.0395567 28.854018,39.011137 L28.854018,39.011137 L29.0318106,39.011137 L29.0318106,39.011137 L29.1293098,38.9193731 L29.2497499,38.9193731 L29.2497499,38.821874 C29.2802772,38.8191496 29.3109865,38.8191496 29.3415138,38.821874 L29.4332778,38.7358453 L29.4332778,38.6498166 L29.5422474,38.5637879 C29.2376857,38.4529688 28.8965603,38.5265449 28.6647549,38.753051 C28.8965603,38.5265449 29.2376857,38.4529688 29.5422474,38.5637879 L29.5422474,38.5637879 L29.8175392,38.5637879 L29.8175392,38.5637879 L30.0125375,38.472024 L30.0813605,38.472024 C30.0813605,38.472024 30.0813605,38.4089363 30.0813605,38.3802601 L30.1788596,38.3802601 L30.2878293,38.2999667 L30.4828276,38.2082027 C30.4828276,38.1737913 30.5459153,38.1393798 30.5745915,38.0992331 L30.6720907,38.0992331 L30.6720907,38.0132044 L30.7351784,38.0132044 L30.8384128,38.0132044 L30.8384128,38.0132044 L31.0276759,37.90997 L31.0276759,37.90997 L31.2284095,37.8067356 L31.2284095,37.8067356 L31.3316439,37.7035012 L31.3316439,37.7035012 L31.6298766,37.606002 L31.6298766,37.606002 L31.733111,37.5142381 L31.733111,37.5142381 L31.9223741,37.4224742 C32.045548,37.2223064 32.2609893,37.0973504 32.4958986,37.0898299 C32.5761921,37.0898299 32.6507503,36.998066 32.7253084,36.9521841 C33.1294928,36.7681187 33.5138342,36.543279 33.8723575,36.2811604 L34.1705902,35.9083695 L34.2623541,35.8108703 L34.3655885,35.7191064 L34.4688229,35.6273424 C34.632662,35.5714572 34.7461398,35.4216664 34.7555852,35.2488163 C34.4344115,35.2488163 34.4344115,35.2488163 34.3655885,34.8702901 C34.3655885,34.8416139 34.3655885,34.8129376 34.3655885,34.7842614 L34.6408803,34.5777926 C34.8072024,34.3311771 34.9677893,34.0788263 35.1341114,33.8264755 C35.7707236,33.1210403 36.4302768,32.4328109 37.0038013,31.6700233 L37.0898299,31.6700233 L37.2217406,31.5438479 L37.324975,31.3603201 L37.5429143,31.0964988 L37.6174725,31.0964988 C37.6174725,31.0334111 37.6174725,30.9760587 37.6174725,30.912971 L37.6977659,30.912971 C37.6977659,30.8613538 37.6977659,30.8040013 37.6977659,30.7466489 L37.7780594,30.7466489 L37.8698233,30.5573858 L37.8698233,30.5573858 L37.9787929,30.373858 L38.7473158,29.4218073 C38.8161387,29.2382794 38.8906969,29.0547516 38.9652551,28.8482828 C38.9897636,28.8424335 39.0153047,28.8424335 39.0398133,28.8482828 C39.2004001,28.5328443 39.360987,28.2174058 39.5273091,27.9077026 L39.8083361,27.5177059 L39.9115705,27.2424141 L40.0090697,27.0531511 C40.0361839,26.9865729 40.066815,26.9214817 40.1008336,26.8581527 C40.3302434,26.2846282 40.553918,25.6594865 40.7833278,25.063021 C40.7833278,24.8221407 40.7833278,24.5812604 40.7833278,24.3346449 L40.8636212,24.3346449 C40.9553851,24.0192064 41.0528843,23.7037679 41.1446482,23.3883294 L41.2478826,23.1073024 C41.2994998,22.8148049 41.351117,22.5337779 41.396999,22.2298099 C41.396999,22.0577526 41.442881,21.8856952 41.4658219,21.7136379 L41.5461154,21.7136379 C41.6473957,21.19053 41.6859028,20.6572066 41.6608203,20.124975 C41.8719526,19.7424287 41.9524987,19.3014388 41.8902301,18.8689563 C41.8706973,18.5602072 41.8880252,18.2502304 41.9418473,17.9455819 L41.9131711,17.7792598 Z M0.481760587,22.442014 C0.38426142,22.5509837 0.33837946,22.6083361 0.332644215,22.6656886 C0.332644215,22.6083361 0.38426142,22.5452484 0.481760587,22.442014 Z M28.9629877,11.5909303 C29.9132342,11.5909303 30.6835612,12.3612573 30.6835612,13.3115038 C30.6835612,14.2617504 29.9132342,15.0320774 28.9629877,15.0320774 C28.0127411,15.0320774 27.2424141,14.2617504 27.2424141,13.3115038 C27.2424141,12.3612573 28.0127411,11.5909303 28.9629877,11.5909303 Z M22.7001,1.93851284 L22.8033344,2.22527509 L22.7001,1.93851284 Z M16.4028009,2.14498166 L16.7641214,2.11057019 L16.4028009,2.14498166 Z M8.12110704,36.8489496 C8.22613689,37.0205365 8.34711249,37.1818373 8.48242748,37.3307102 C8.34579565,37.1829302 8.22471898,37.0214946 8.12110704,36.8489496 L8.12110704,36.8489496 Z M9.50903635,37.5658553 L9.50903635,37.5658553 L9.618006,37.6232077 L9.50903635,37.5658553 Z M36.762921,25.906102 C36.0746916,27.72991 34.0100033,27.72991 29.0260754,27.72991 L23.9274425,27.72991 C23.9274425,30.7065022 23.893031,31.2628209 23.8586195,31.9453151 C23.8586195,32.2435478 23.8299433,32.5647216 23.8127376,33.1325108 C23.7566699,34.4636227 23.0345713,35.6771795 21.8914305,36.3614538 C21.2267876,36.7747973 20.4603103,36.9952092 19.6776259,36.9981285 C19.1114025,37.0012863 18.5514051,36.8798883 18.0373458,36.6424808 C17.6490592,36.4611438 17.3870097,36.0864331 17.3499089,35.6594985 C17.3128081,35.232564 17.5062923,34.8182671 17.8574781,34.5726696 C18.2086638,34.3270721 18.6641976,34.2874859 19.0524842,34.4688229 C19.5761039,34.6845382 20.1723431,34.6287749 20.6468823,34.3197066 C21.0991687,34.0563777 21.3913736,33.5858418 21.4268756,33.0636879 C21.4268756,32.4901634 21.4612871,32.1345782 21.4784928,31.824875 C21.4784928,31.1653218 21.5358453,30.631944 21.5415805,27.6496165 C19.4456424,27.3896944 17.5063226,26.4058345 16.0586862,24.8680227 C15.1443832,23.866501 14.4316844,22.6981424 13.9595865,21.4268756 C12.7322441,24.2314105 10.5184395,26.7778593 6.79626542,27.5807936 C6.71044356,27.5892297 6.62400126,27.5892297 6.53817939,27.5807936 C5.95724334,27.5461632 5.48511672,27.0992574 5.41867752,26.5210949 C5.35223832,25.9429325 5.71068509,25.4005818 6.26862287,25.2350784 C9.13624542,24.6271424 11.0862287,22.6828943 12.1300433,19.4654218 C12.5441551,18.1541872 12.7889314,16.7953897 12.8584195,15.422074 C12.8584195,15.1238413 12.8584195,14.9001667 12.8584195,14.7567856 L9.02154051,14.7567856 C8.35953544,14.7567856 7.82287429,14.2201244 7.82287429,13.5581194 C7.82287429,12.8961143 8.35953544,12.3594532 9.02154051,12.3594532 L12.8813605,12.3594532 L12.8813605,8.08096032 C12.9250112,7.44953109 13.4499581,6.95962096 14.0828943,6.95962096 C14.7158305,6.95962096 15.2407774,7.44953109 15.2844281,8.08096032 L15.2844281,12.3651884 L19.1729243,12.3651884 C19.8349294,12.3651884 20.3715905,12.9018495 20.3715905,13.5638546 C20.3715905,14.2258597 19.8349294,14.7625208 19.1729243,14.7625208 L15.2844281,14.7625208 C15.2844281,15.0454596 15.2844281,15.3379571 15.2844281,15.6400133 C15.3188396,17.2974992 15.6572191,20.9279093 17.8251417,23.2449483 C18.9283821,24.3876361 20.3981155,25.1062627 21.9774592,25.2752251 C23.1302434,22.5108369 26.3821274,18.3527843 27.9535845,17.3261754 C28.4611312,16.9318749 29.1387495,16.8338273 29.7372457,17.0680894 C30.6491497,17.4867623 32.8285428,19.6948316 33.8494165,20.8017339 C37.021007,24.2314105 37.0267422,25.2006669 36.762921,25.906102 Z" id="Shape"></path>
                    <polygon id="Path" points="17.0107369 42.7161054 17.0164722 42.7161054 17.0107369 42.7103701"></polygon>
                    <path d="M29.0490163,19.4998333 C27.9306435,20.3257086 25.6824275,23.3481827 24.5755252,25.3555185 L29.0260754,25.3555185 C31.193998,25.3555185 33.4250083,25.3555185 34.2738246,25.1375792 C33.4307436,23.7152384 30.2763588,20.4461487 29.0490163,19.4998333 Z" id="Path"></path>
                </g>
            </g>
        </g>
    </g>
</svg>