<?xml version="1.0" encoding="UTF-8"?>
<svg width="22px" height="22px" viewBox="0 0 22 22" version="1.1" xmlns="http://www.w3.org/2000/svg" xmlns:xlink="http://www.w3.org/1999/xlink">
    <title>28A3BF93-02E8-424B-AE16-F1EF2E168BC8</title>
    <g id="Page-1" stroke="none" stroke-width="1" fill="none" fill-rule="evenodd">
        <g id="永豐銀行DAWHO活動網案切版_web" transform="translate(-964.000000, -2339.000000)" fill-rule="nonzero">
            <g id="footer" transform="translate(0.000000, 2316.000000)">
                <g id="img/footer/logo" transform="translate(964.000000, 23.000000)">
                    <path d="M21.860323,10.9300046 C21.860323,15.3516866 19.1962242,19.3377924 15.1107353,21.0289611 C11.0252464,22.7201298 6.32327495,21.7831711 3.19810493,18.6551392 C0.0729349003,15.5271073 -0.859719552,10.8242802 0.835188038,6.74034095 C2.53009563,2.65640173 6.51863829,-0.00404084751 10.9403184,0 C13.8382159,0 16.6172772,1.1518727 18.6654621,3.20193328 C20.7136471,5.25199386 21.8629721,8.03210831 21.860323,10.9300046 Z" id="Path" fill="#E50012"></path>
                    <rect id="Rectangle" fill="#FFFFFF" x="12.1503184" y="3.95000461" width="2.73" height="2.73"></rect>
                    <polygon id="Path" fill="#FFFFFF" points="2.44031839 11.5300046 2.44031839 13.9600046 4.87031839 13.9600046 4.87031839 16.3900046 7.29031839 16.3900046 7.29031839 11.5300046"></polygon>
                    <polygon id="Path" fill="#FFFFFF" points="3.05031839 6.68000461 3.05031839 9.10000461 9.72031839 9.10000461 9.72031839 16.3900046 12.1503184 16.3900046 12.1503184 6.68000461"></polygon>
                    <polygon id="Path" fill="#FFFFFF" points="14.5803184 9.10000461 14.5803184 16.3900046 17.0103184 16.3900046 17.0103184 11.5300046 20.0403184 11.5300046 20.0403184 9.10000461"></polygon>
                </g>
            </g>
        </g>
    </g>
</svg>